<mxfile host="app.diagrams.net" modified="2023-10-17T01:05:29.679Z" agent="Mozilla/5.0 (X11; Linux x86_64) AppleWebKit/537.36 (KHTML, like Gecko) Chrome/117.0.0.0 Safari/537.36" etag="SxSw0PB6Ww7TA35CB4F-" version="22.0.4" type="device">
  <diagram id="YhpJRz8GzKbeHDrZ0zuD" name="Page-1">
    <mxGraphModel dx="6678" dy="3549" grid="1" gridSize="10" guides="1" tooltips="1" connect="1" arrows="1" fold="1" page="1" pageScale="1" pageWidth="827" pageHeight="1169" math="0" shadow="0">
      <root>
        <mxCell id="0" />
        <mxCell id="1" parent="0" />
        <mxCell id="H2sVqaUuuIT5vJTReZ8k-3" value="" style="rounded=1;whiteSpace=wrap;html=1;" parent="1" vertex="1">
          <mxGeometry x="-70" y="-180" width="240" height="420" as="geometry" />
        </mxCell>
        <mxCell id="H2sVqaUuuIT5vJTReZ8k-6" value="income/expense/invest (create edit)" style="text;html=1;strokeColor=none;fillColor=none;align=center;verticalAlign=middle;whiteSpace=wrap;rounded=0;" parent="1" vertex="1">
          <mxGeometry x="-55" y="-200" width="210" height="20" as="geometry" />
        </mxCell>
        <mxCell id="H2sVqaUuuIT5vJTReZ8k-8" value="" style="rounded=1;whiteSpace=wrap;html=1;" parent="1" vertex="1">
          <mxGeometry x="-600" y="-180" width="240" height="360" as="geometry" />
        </mxCell>
        <mxCell id="H2sVqaUuuIT5vJTReZ8k-9" value="" style="rounded=1;whiteSpace=wrap;html=1;arcSize=10;" parent="1" vertex="1">
          <mxGeometry x="-600" y="50" width="240" height="190" as="geometry" />
        </mxCell>
        <mxCell id="H2sVqaUuuIT5vJTReZ8k-10" value="" style="rounded=0;whiteSpace=wrap;html=1;" parent="1" vertex="1">
          <mxGeometry x="-600" y="40" width="240" height="30" as="geometry" />
        </mxCell>
        <mxCell id="H2sVqaUuuIT5vJTReZ8k-11" value="main" style="text;html=1;strokeColor=none;fillColor=none;align=center;verticalAlign=middle;whiteSpace=wrap;rounded=0;" parent="1" vertex="1">
          <mxGeometry x="-510" y="-200" width="40" height="20" as="geometry" />
        </mxCell>
        <mxCell id="H2sVqaUuuIT5vJTReZ8k-12" value="" style="rounded=1;whiteSpace=wrap;html=1;" parent="1" vertex="1">
          <mxGeometry x="-590" y="90" width="100" height="60" as="geometry" />
        </mxCell>
        <mxCell id="H2sVqaUuuIT5vJTReZ8k-13" value="" style="rounded=1;whiteSpace=wrap;html=1;" parent="1" vertex="1">
          <mxGeometry x="-590" y="165" width="100" height="60" as="geometry" />
        </mxCell>
        <mxCell id="H2sVqaUuuIT5vJTReZ8k-14" value="" style="rounded=1;whiteSpace=wrap;html=1;" parent="1" vertex="1">
          <mxGeometry x="-470" y="165" width="100" height="60" as="geometry" />
        </mxCell>
        <mxCell id="H2sVqaUuuIT5vJTReZ8k-15" value="" style="rounded=1;whiteSpace=wrap;html=1;" parent="1" vertex="1">
          <mxGeometry x="-470" y="90" width="100" height="60" as="geometry" />
        </mxCell>
        <mxCell id="H2sVqaUuuIT5vJTReZ8k-16" value="Expense" style="text;html=1;strokeColor=none;fillColor=none;align=center;verticalAlign=middle;whiteSpace=wrap;rounded=0;" parent="1" vertex="1">
          <mxGeometry x="-560" y="110" width="40" height="20" as="geometry" />
        </mxCell>
        <mxCell id="H2sVqaUuuIT5vJTReZ8k-18" value="Statistic" style="text;html=1;strokeColor=none;fillColor=none;align=center;verticalAlign=middle;whiteSpace=wrap;rounded=0;" parent="1" vertex="1">
          <mxGeometry x="-560" y="185" width="40" height="20" as="geometry" />
        </mxCell>
        <mxCell id="H2sVqaUuuIT5vJTReZ8k-19" value="income" style="text;html=1;strokeColor=none;fillColor=none;align=center;verticalAlign=middle;whiteSpace=wrap;rounded=0;" parent="1" vertex="1">
          <mxGeometry x="-440" y="110" width="40" height="20" as="geometry" />
        </mxCell>
        <mxCell id="H2sVqaUuuIT5vJTReZ8k-20" value="invest" style="text;html=1;strokeColor=none;fillColor=none;align=center;verticalAlign=middle;whiteSpace=wrap;rounded=0;" parent="1" vertex="1">
          <mxGeometry x="-440" y="185" width="40" height="20" as="geometry" />
        </mxCell>
        <mxCell id="H2sVqaUuuIT5vJTReZ8k-33" value="&lt;br&gt;" style="text;html=1;align=center;verticalAlign=middle;resizable=0;points=[];autosize=1;strokeColor=none;" parent="1" vertex="1">
          <mxGeometry x="-80" y="380" width="20" height="20" as="geometry" />
        </mxCell>
        <mxCell id="qZg-aj12MNxIcI7UZpvb-1" value="TELEGRAM" style="text;html=1;strokeColor=none;fillColor=none;align=center;verticalAlign=middle;whiteSpace=wrap;rounded=0;" parent="1" vertex="1">
          <mxGeometry x="-555" y="-230" width="130" height="30" as="geometry" />
        </mxCell>
        <mxCell id="qZg-aj12MNxIcI7UZpvb-2" value="APP" style="text;html=1;strokeColor=none;fillColor=none;align=center;verticalAlign=middle;whiteSpace=wrap;rounded=0;" parent="1" vertex="1">
          <mxGeometry x="-20" y="-230" width="130" height="30" as="geometry" />
        </mxCell>
        <mxCell id="qZg-aj12MNxIcI7UZpvb-4" value="tags" style="rounded=1;whiteSpace=wrap;html=1;" parent="1" vertex="1">
          <mxGeometry x="-50" y="-160" width="200" height="30" as="geometry" />
        </mxCell>
        <mxCell id="qZg-aj12MNxIcI7UZpvb-5" value="currency" style="rounded=1;whiteSpace=wrap;html=1;" parent="1" vertex="1">
          <mxGeometry x="-55" y="-60" width="200" height="30" as="geometry" />
        </mxCell>
        <mxCell id="qZg-aj12MNxIcI7UZpvb-6" value="price" style="rounded=1;whiteSpace=wrap;html=1;" parent="1" vertex="1">
          <mxGeometry x="-50" y="10" width="200" height="30" as="geometry" />
        </mxCell>
        <mxCell id="qZg-aj12MNxIcI7UZpvb-7" value="" style="rounded=1;whiteSpace=wrap;html=1;" parent="1" vertex="1">
          <mxGeometry x="-40" y="-120" width="50" height="20" as="geometry" />
        </mxCell>
        <mxCell id="qZg-aj12MNxIcI7UZpvb-8" value="" style="rounded=1;whiteSpace=wrap;html=1;" parent="1" vertex="1">
          <mxGeometry x="20" y="-120" width="50" height="20" as="geometry" />
        </mxCell>
        <mxCell id="qZg-aj12MNxIcI7UZpvb-9" value="" style="rounded=1;whiteSpace=wrap;html=1;" parent="1" vertex="1">
          <mxGeometry x="80" y="-120" width="50" height="20" as="geometry" />
        </mxCell>
        <mxCell id="qZg-aj12MNxIcI7UZpvb-13" value="" style="rounded=1;whiteSpace=wrap;html=1;" parent="1" vertex="1">
          <mxGeometry x="-40" y="-90" width="50" height="20" as="geometry" />
        </mxCell>
        <mxCell id="qZg-aj12MNxIcI7UZpvb-14" value="" style="rounded=1;whiteSpace=wrap;html=1;" parent="1" vertex="1">
          <mxGeometry x="20" y="-90" width="50" height="20" as="geometry" />
        </mxCell>
        <mxCell id="qZg-aj12MNxIcI7UZpvb-15" value="" style="rounded=1;whiteSpace=wrap;html=1;" parent="1" vertex="1">
          <mxGeometry x="80" y="-90" width="50" height="20" as="geometry" />
        </mxCell>
        <mxCell id="qZg-aj12MNxIcI7UZpvb-25" value="USD" style="rounded=1;whiteSpace=wrap;html=1;" parent="1" vertex="1">
          <mxGeometry x="-40" y="-25" width="50" height="20" as="geometry" />
        </mxCell>
        <mxCell id="qZg-aj12MNxIcI7UZpvb-26" value="CAD" style="rounded=1;whiteSpace=wrap;html=1;" parent="1" vertex="1">
          <mxGeometry x="20" y="-25" width="50" height="20" as="geometry" />
        </mxCell>
        <mxCell id="qZg-aj12MNxIcI7UZpvb-27" value="UAH" style="rounded=1;whiteSpace=wrap;html=1;" parent="1" vertex="1">
          <mxGeometry x="80" y="-25" width="50" height="20" as="geometry" />
        </mxCell>
        <mxCell id="qZg-aj12MNxIcI7UZpvb-28" value="" style="shape=flexArrow;endArrow=classic;html=1;rounded=0;" parent="1" edge="1">
          <mxGeometry width="50" height="50" relative="1" as="geometry">
            <mxPoint x="140" y="-15.5" as="sourcePoint" />
            <mxPoint x="230" y="-15.5" as="targetPoint" />
          </mxGeometry>
        </mxCell>
        <mxCell id="qZg-aj12MNxIcI7UZpvb-30" value="fast pick (hard code)" style="text;html=1;strokeColor=none;fillColor=none;align=center;verticalAlign=middle;whiteSpace=wrap;rounded=0;" parent="1" vertex="1">
          <mxGeometry x="215" y="-30" width="170" height="30" as="geometry" />
        </mxCell>
        <mxCell id="qZg-aj12MNxIcI7UZpvb-31" value="CREATE/EDIT" style="rounded=1;whiteSpace=wrap;html=1;" parent="1" vertex="1">
          <mxGeometry x="-10" y="130" width="120" height="40" as="geometry" />
        </mxCell>
        <mxCell id="qZg-aj12MNxIcI7UZpvb-34" value="" style="shape=flexArrow;endArrow=classic;html=1;rounded=0;" parent="1" edge="1">
          <mxGeometry width="50" height="50" relative="1" as="geometry">
            <mxPoint x="140" y="-105" as="sourcePoint" />
            <mxPoint x="230" y="-105" as="targetPoint" />
          </mxGeometry>
        </mxCell>
        <mxCell id="qZg-aj12MNxIcI7UZpvb-35" value="&lt;b&gt;top&lt;/b&gt; tags or by &lt;b&gt;search&lt;/b&gt;" style="text;html=1;strokeColor=none;fillColor=none;align=center;verticalAlign=middle;whiteSpace=wrap;rounded=0;" parent="1" vertex="1">
          <mxGeometry x="230" y="-125" width="140" height="30" as="geometry" />
        </mxCell>
        <mxCell id="qZg-aj12MNxIcI7UZpvb-39" value="5" style="rounded=1;whiteSpace=wrap;html=1;" parent="1" vertex="1">
          <mxGeometry x="-40" y="55" width="50" height="20" as="geometry" />
        </mxCell>
        <mxCell id="qZg-aj12MNxIcI7UZpvb-40" value="10" style="rounded=1;whiteSpace=wrap;html=1;" parent="1" vertex="1">
          <mxGeometry x="20" y="55" width="50" height="20" as="geometry" />
        </mxCell>
        <mxCell id="qZg-aj12MNxIcI7UZpvb-41" value="15" style="rounded=1;whiteSpace=wrap;html=1;" parent="1" vertex="1">
          <mxGeometry x="80" y="55" width="50" height="20" as="geometry" />
        </mxCell>
        <mxCell id="qZg-aj12MNxIcI7UZpvb-42" value="" style="shape=flexArrow;endArrow=classic;html=1;rounded=0;" parent="1" edge="1">
          <mxGeometry width="50" height="50" relative="1" as="geometry">
            <mxPoint x="140" y="64.5" as="sourcePoint" />
            <mxPoint x="230" y="64.5" as="targetPoint" />
          </mxGeometry>
        </mxCell>
        <mxCell id="qZg-aj12MNxIcI7UZpvb-43" value="fast pick (hard code)" style="text;html=1;strokeColor=none;fillColor=none;align=center;verticalAlign=middle;whiteSpace=wrap;rounded=0;" parent="1" vertex="1">
          <mxGeometry x="215" y="50" width="170" height="30" as="geometry" />
        </mxCell>
        <mxCell id="qZg-aj12MNxIcI7UZpvb-45" value="" style="rounded=0;whiteSpace=wrap;html=1;fillColor=#bac8d3;strokeColor=#23445d;fillStyle=dashed;" parent="1" vertex="1">
          <mxGeometry x="-55" y="-30" width="470" height="30" as="geometry" />
        </mxCell>
        <mxCell id="qZg-aj12MNxIcI7UZpvb-46" value="" style="rounded=1;whiteSpace=wrap;html=1;" parent="1" vertex="1">
          <mxGeometry x="-690" y="490" width="240" height="420" as="geometry" />
        </mxCell>
        <mxCell id="qZg-aj12MNxIcI7UZpvb-47" value="table" style="text;html=1;strokeColor=none;fillColor=none;align=center;verticalAlign=middle;whiteSpace=wrap;rounded=0;" parent="1" vertex="1">
          <mxGeometry x="-650" y="465" width="160" height="20" as="geometry" />
        </mxCell>
        <mxCell id="qZg-aj12MNxIcI7UZpvb-51" value="" style="endArrow=classic;html=1;rounded=0;" parent="1" edge="1">
          <mxGeometry width="50" height="50" relative="1" as="geometry">
            <mxPoint x="-390" y="110" as="sourcePoint" />
            <mxPoint x="-90" y="-110" as="targetPoint" />
          </mxGeometry>
        </mxCell>
        <mxCell id="qZg-aj12MNxIcI7UZpvb-52" value="" style="endArrow=classic;html=1;rounded=0;" parent="1" edge="1">
          <mxGeometry width="50" height="50" relative="1" as="geometry">
            <mxPoint x="-510" y="100" as="sourcePoint" />
            <mxPoint x="-310" y="50" as="targetPoint" />
          </mxGeometry>
        </mxCell>
        <mxCell id="qZg-aj12MNxIcI7UZpvb-53" value="" style="endArrow=classic;html=1;rounded=0;" parent="1" edge="1">
          <mxGeometry width="50" height="50" relative="1" as="geometry">
            <mxPoint x="-390" y="180" as="sourcePoint" />
            <mxPoint x="-310" y="50" as="targetPoint" />
          </mxGeometry>
        </mxCell>
        <mxCell id="qZg-aj12MNxIcI7UZpvb-56" value="" style="rounded=0;whiteSpace=wrap;html=1;" parent="1" vertex="1">
          <mxGeometry x="-670" y="535" width="200" height="290" as="geometry" />
        </mxCell>
        <mxCell id="qZg-aj12MNxIcI7UZpvb-57" value="" style="rounded=0;whiteSpace=wrap;html=1;" parent="1" vertex="1">
          <mxGeometry x="-670" y="535" width="60" height="290" as="geometry" />
        </mxCell>
        <mxCell id="qZg-aj12MNxIcI7UZpvb-58" value="" style="rounded=0;whiteSpace=wrap;html=1;" parent="1" vertex="1">
          <mxGeometry x="-610" y="535" width="60" height="290" as="geometry" />
        </mxCell>
        <mxCell id="qZg-aj12MNxIcI7UZpvb-59" value="" style="rounded=0;whiteSpace=wrap;html=1;" parent="1" vertex="1">
          <mxGeometry x="-550" y="535" width="60" height="290" as="geometry" />
        </mxCell>
        <mxCell id="qZg-aj12MNxIcI7UZpvb-60" value="" style="rounded=1;whiteSpace=wrap;html=1;fillColor=#fad9d5;strokeColor=#ae4132;fillStyle=dashed;" parent="1" vertex="1">
          <mxGeometry x="-670" y="535" width="200" height="30" as="geometry" />
        </mxCell>
        <mxCell id="qZg-aj12MNxIcI7UZpvb-62" value="" style="rounded=0;whiteSpace=wrap;html=1;" parent="1" vertex="1">
          <mxGeometry x="-810" y="315" width="430" height="40" as="geometry" />
        </mxCell>
        <mxCell id="qZg-aj12MNxIcI7UZpvb-64" value="TYPE" style="rounded=0;whiteSpace=wrap;html=1;" parent="1" vertex="1">
          <mxGeometry x="-810" y="315" width="120" height="40" as="geometry" />
        </mxCell>
        <mxCell id="qZg-aj12MNxIcI7UZpvb-65" value="TAGS" style="rounded=0;whiteSpace=wrap;html=1;" parent="1" vertex="1">
          <mxGeometry x="-690" y="315" width="120" height="40" as="geometry" />
        </mxCell>
        <mxCell id="qZg-aj12MNxIcI7UZpvb-66" value="PRICE + CURRENCY" style="rounded=0;whiteSpace=wrap;html=1;" parent="1" vertex="1">
          <mxGeometry x="-570" y="315" width="130" height="40" as="geometry" />
        </mxCell>
        <mxCell id="qZg-aj12MNxIcI7UZpvb-67" value="total income" style="rounded=0;whiteSpace=wrap;html=1;" parent="1" vertex="1">
          <mxGeometry x="-670" y="590" width="180" height="25" as="geometry" />
        </mxCell>
        <mxCell id="qZg-aj12MNxIcI7UZpvb-68" value="total expense" style="rounded=0;whiteSpace=wrap;html=1;" parent="1" vertex="1">
          <mxGeometry x="-670" y="715" width="180" height="25" as="geometry" />
        </mxCell>
        <mxCell id="qZg-aj12MNxIcI7UZpvb-69" value="total invest" style="rounded=0;whiteSpace=wrap;html=1;" parent="1" vertex="1">
          <mxGeometry x="-670" y="800" width="180" height="25" as="geometry" />
        </mxCell>
        <mxCell id="qZg-aj12MNxIcI7UZpvb-70" value="&lt;span style=&quot;white-space: pre;&quot;&gt;&#x9;&lt;span style=&quot;white-space: pre;&quot;&gt;&#x9;&lt;/span&gt;&lt;span style=&quot;white-space: pre;&quot;&gt;&#x9;&lt;/span&gt;&lt;span style=&quot;white-space: pre;&quot;&gt;&#x9;&lt;/span&gt;&lt;/span&gt;total gained" style="rounded=0;whiteSpace=wrap;html=1;" parent="1" vertex="1">
          <mxGeometry x="-670" y="835" width="180" height="20" as="geometry" />
        </mxCell>
        <mxCell id="qZg-aj12MNxIcI7UZpvb-71" value="MONTH NAME (form-to)" style="text;html=1;strokeColor=none;fillColor=none;align=center;verticalAlign=middle;whiteSpace=wrap;rounded=0;" parent="1" vertex="1">
          <mxGeometry x="-660" y="505" width="100" height="30" as="geometry" />
        </mxCell>
        <mxCell id="qZg-aj12MNxIcI7UZpvb-73" value="DEL/EDIT" style="text;html=1;strokeColor=none;fillColor=none;align=center;verticalAlign=middle;whiteSpace=wrap;rounded=0;" parent="1" vertex="1">
          <mxGeometry x="-440" y="320" width="60" height="30" as="geometry" />
        </mxCell>
        <mxCell id="qZg-aj12MNxIcI7UZpvb-74" value="" style="rounded=1;whiteSpace=wrap;html=1;" parent="1" vertex="1">
          <mxGeometry x="90" y="485" width="240" height="420" as="geometry" />
        </mxCell>
        <mxCell id="qZg-aj12MNxIcI7UZpvb-75" value="graphs" style="text;html=1;strokeColor=none;fillColor=none;align=center;verticalAlign=middle;whiteSpace=wrap;rounded=0;" parent="1" vertex="1">
          <mxGeometry x="127" y="462.5" width="160" height="20" as="geometry" />
        </mxCell>
        <mxCell id="qZg-aj12MNxIcI7UZpvb-76" value="MONTH NAME" style="text;html=1;strokeColor=none;fillColor=none;align=center;verticalAlign=middle;whiteSpace=wrap;rounded=0;" parent="1" vertex="1">
          <mxGeometry x="120" y="502.5" width="100" height="30" as="geometry" />
        </mxCell>
        <mxCell id="qZg-aj12MNxIcI7UZpvb-82" value="" style="rounded=0;whiteSpace=wrap;html=1;" parent="1" vertex="1">
          <mxGeometry x="140" y="602.5" width="20" height="155" as="geometry" />
        </mxCell>
        <mxCell id="qZg-aj12MNxIcI7UZpvb-83" value="" style="rounded=0;whiteSpace=wrap;html=1;" parent="1" vertex="1">
          <mxGeometry x="170" y="662.5" width="20" height="95" as="geometry" />
        </mxCell>
        <mxCell id="qZg-aj12MNxIcI7UZpvb-84" value="" style="rounded=0;whiteSpace=wrap;html=1;" parent="1" vertex="1">
          <mxGeometry x="200" y="632.5" width="20" height="125" as="geometry" />
        </mxCell>
        <mxCell id="qZg-aj12MNxIcI7UZpvb-85" value="" style="rounded=0;whiteSpace=wrap;html=1;" parent="1" vertex="1">
          <mxGeometry x="230" y="602.5" width="20" height="155" as="geometry" />
        </mxCell>
        <mxCell id="qZg-aj12MNxIcI7UZpvb-86" value="" style="rounded=0;whiteSpace=wrap;html=1;" parent="1" vertex="1">
          <mxGeometry x="260" y="662.5" width="20" height="95" as="geometry" />
        </mxCell>
        <mxCell id="qZg-aj12MNxIcI7UZpvb-89" value="day" style="text;html=1;strokeColor=none;fillColor=none;align=center;verticalAlign=middle;whiteSpace=wrap;rounded=0;" parent="1" vertex="1">
          <mxGeometry x="180" y="762.5" width="60" height="30" as="geometry" />
        </mxCell>
        <mxCell id="qZg-aj12MNxIcI7UZpvb-90" value="cost" style="text;html=1;strokeColor=none;fillColor=none;align=center;verticalAlign=middle;whiteSpace=wrap;rounded=0;" parent="1" vertex="1">
          <mxGeometry x="80" y="662.5" width="60" height="30" as="geometry" />
        </mxCell>
        <mxCell id="qZg-aj12MNxIcI7UZpvb-91" value="income/expense/invest&lt;br&gt;graph" style="text;html=1;strokeColor=none;fillColor=none;align=center;verticalAlign=middle;whiteSpace=wrap;rounded=0;" parent="1" vertex="1">
          <mxGeometry x="145" y="542.5" width="130" height="45" as="geometry" />
        </mxCell>
        <mxCell id="qZg-aj12MNxIcI7UZpvb-92" value="" style="rounded=1;whiteSpace=wrap;html=1;fillColor=#bac8d3;strokeColor=#23445d;fillStyle=dashed;" parent="1" vertex="1">
          <mxGeometry x="80" y="477.5" width="260" height="440" as="geometry" />
        </mxCell>
        <mxCell id="qZg-aj12MNxIcI7UZpvb-93" value="" style="rounded=1;whiteSpace=wrap;html=1;" parent="1" vertex="1">
          <mxGeometry x="-310" y="480" width="240" height="420" as="geometry" />
        </mxCell>
        <mxCell id="qZg-aj12MNxIcI7UZpvb-94" value="search widget" style="text;html=1;strokeColor=none;fillColor=none;align=center;verticalAlign=middle;whiteSpace=wrap;rounded=0;" parent="1" vertex="1">
          <mxGeometry x="-250" y="450" width="99" height="30" as="geometry" />
        </mxCell>
        <mxCell id="qZg-aj12MNxIcI7UZpvb-96" value="tags" style="rounded=1;whiteSpace=wrap;html=1;" parent="1" vertex="1">
          <mxGeometry x="-271" y="505" width="171" height="30" as="geometry" />
        </mxCell>
        <mxCell id="qZg-aj12MNxIcI7UZpvb-97" value="from date - to date" style="rounded=1;whiteSpace=wrap;html=1;" parent="1" vertex="1">
          <mxGeometry x="-271" y="545" width="171" height="30" as="geometry" />
        </mxCell>
        <mxCell id="qZg-aj12MNxIcI7UZpvb-98" value="income" style="rounded=1;whiteSpace=wrap;html=1;" parent="1" vertex="1">
          <mxGeometry x="-271" y="587.5" width="51" height="30" as="geometry" />
        </mxCell>
        <mxCell id="qZg-aj12MNxIcI7UZpvb-99" value="expense" style="rounded=1;whiteSpace=wrap;html=1;" parent="1" vertex="1">
          <mxGeometry x="-212" y="587.5" width="52" height="30" as="geometry" />
        </mxCell>
        <mxCell id="qZg-aj12MNxIcI7UZpvb-100" value="invest" style="rounded=1;whiteSpace=wrap;html=1;" parent="1" vertex="1">
          <mxGeometry x="-152" y="587.5" width="52" height="30" as="geometry" />
        </mxCell>
        <mxCell id="qZg-aj12MNxIcI7UZpvb-102" value="" style="endArrow=classic;html=1;rounded=0;entryX=-0.021;entryY=0.093;entryDx=0;entryDy=0;entryPerimeter=0;" parent="1" target="qZg-aj12MNxIcI7UZpvb-93" edge="1">
          <mxGeometry width="50" height="50" relative="1" as="geometry">
            <mxPoint x="-490" y="495" as="sourcePoint" />
            <mxPoint x="-90" y="465" as="targetPoint" />
          </mxGeometry>
        </mxCell>
        <mxCell id="qZg-aj12MNxIcI7UZpvb-103" value="" style="rounded=1;whiteSpace=wrap;html=1;" parent="1" vertex="1">
          <mxGeometry x="-655" y="490" width="170" height="10" as="geometry" />
        </mxCell>
        <mxCell id="qZg-aj12MNxIcI7UZpvb-105" value="" style="rounded=1;whiteSpace=wrap;html=1;" parent="1" vertex="1">
          <mxGeometry x="-310" y="670" width="240" height="3" as="geometry" />
        </mxCell>
        <mxCell id="qZg-aj12MNxIcI7UZpvb-106" value="" style="endArrow=classic;html=1;rounded=0;entryX=0.175;entryY=-0.1;entryDx=0;entryDy=0;entryPerimeter=0;" parent="1" source="H2sVqaUuuIT5vJTReZ8k-13" target="qZg-aj12MNxIcI7UZpvb-47" edge="1">
          <mxGeometry width="50" height="50" relative="1" as="geometry">
            <mxPoint x="-750" y="260" as="sourcePoint" />
            <mxPoint x="-700" y="210" as="targetPoint" />
          </mxGeometry>
        </mxCell>
        <mxCell id="qZg-aj12MNxIcI7UZpvb-107" value="" style="endArrow=classic;html=1;rounded=0;exitX=0.75;exitY=0;exitDx=0;exitDy=0;" parent="1" source="qZg-aj12MNxIcI7UZpvb-60" edge="1">
          <mxGeometry width="50" height="50" relative="1" as="geometry">
            <mxPoint x="-1050" y="480" as="sourcePoint" />
            <mxPoint x="-540" y="360" as="targetPoint" />
          </mxGeometry>
        </mxCell>
        <mxCell id="qZg-aj12MNxIcI7UZpvb-109" value="averages" style="rounded=0;whiteSpace=wrap;html=1;" parent="1" vertex="1">
          <mxGeometry x="-670" y="860" width="180" height="20" as="geometry" />
        </mxCell>
        <mxCell id="qZg-aj12MNxIcI7UZpvb-110" value="" style="endArrow=classic;html=1;rounded=0;" parent="1" source="qZg-aj12MNxIcI7UZpvb-109" edge="1">
          <mxGeometry width="50" height="50" relative="1" as="geometry">
            <mxPoint x="-890" y="890" as="sourcePoint" />
            <mxPoint x="-800" y="810" as="targetPoint" />
          </mxGeometry>
        </mxCell>
        <mxCell id="qZg-aj12MNxIcI7UZpvb-111" value="avg income" style="rounded=0;whiteSpace=wrap;html=1;" parent="1" vertex="1">
          <mxGeometry x="-860" y="727.5" width="140" height="22.5" as="geometry" />
        </mxCell>
        <mxCell id="qZg-aj12MNxIcI7UZpvb-112" value="avg expense" style="rounded=0;whiteSpace=wrap;html=1;" parent="1" vertex="1">
          <mxGeometry x="-860" y="750" width="140" height="22.5" as="geometry" />
        </mxCell>
        <mxCell id="qZg-aj12MNxIcI7UZpvb-113" value="avg invest" style="rounded=0;whiteSpace=wrap;html=1;" parent="1" vertex="1">
          <mxGeometry x="-860" y="772.5" width="140" height="22.5" as="geometry" />
        </mxCell>
        <mxCell id="qZg-aj12MNxIcI7UZpvb-114" value="if more than one month" style="text;html=1;strokeColor=none;fillColor=none;align=center;verticalAlign=middle;whiteSpace=wrap;rounded=0;" parent="1" vertex="1">
          <mxGeometry x="-860" y="695" width="130" height="30" as="geometry" />
        </mxCell>
        <mxCell id="qZg-aj12MNxIcI7UZpvb-115" value="from price - to price" style="rounded=1;whiteSpace=wrap;html=1;" parent="1" vertex="1">
          <mxGeometry x="-270" y="630" width="170" height="30" as="geometry" />
        </mxCell>
        <mxCell id="qZg-aj12MNxIcI7UZpvb-116" value="&lt;h1&gt;Filtering&lt;/h1&gt;&lt;p&gt;by dates - done&lt;br&gt;by type - done&lt;br&gt;by tags - done&lt;br&gt;by price - done&lt;/p&gt;" style="text;html=1;strokeColor=none;fillColor=none;spacing=5;spacingTop=-20;whiteSpace=wrap;overflow=hidden;rounded=0;" parent="1" vertex="1">
          <mxGeometry x="-295" y="920" width="190" height="120" as="geometry" />
        </mxCell>
        <mxCell id="qZg-aj12MNxIcI7UZpvb-117" value="&lt;h1&gt;Calculate&lt;/h1&gt;&lt;p&gt;avgs - done&lt;br&gt;totals - done&lt;br&gt;total gained - FE&lt;/p&gt;" style="text;html=1;strokeColor=none;fillColor=none;spacing=5;spacingTop=-20;whiteSpace=wrap;overflow=hidden;rounded=0;" parent="1" vertex="1">
          <mxGeometry x="-770" y="920" width="190" height="120" as="geometry" />
        </mxCell>
        <mxCell id="o0VZomf-e8LL-QNXolfp-1" value="" style="rounded=1;whiteSpace=wrap;html=1;" vertex="1" parent="1">
          <mxGeometry x="-1220" y="-205" width="240" height="360" as="geometry" />
        </mxCell>
        <mxCell id="o0VZomf-e8LL-QNXolfp-2" value="" style="rounded=1;whiteSpace=wrap;html=1;arcSize=10;" vertex="1" parent="1">
          <mxGeometry x="-1220" y="25" width="240" height="190" as="geometry" />
        </mxCell>
        <mxCell id="o0VZomf-e8LL-QNXolfp-3" value="" style="rounded=0;whiteSpace=wrap;html=1;" vertex="1" parent="1">
          <mxGeometry x="-1220" y="15" width="240" height="30" as="geometry" />
        </mxCell>
        <mxCell id="o0VZomf-e8LL-QNXolfp-4" value="Phone" style="text;html=1;strokeColor=none;fillColor=none;align=center;verticalAlign=middle;whiteSpace=wrap;rounded=0;" vertex="1" parent="1">
          <mxGeometry x="-1130" y="-225" width="40" height="20" as="geometry" />
        </mxCell>
        <mxCell id="o0VZomf-e8LL-QNXolfp-5" value="" style="rounded=1;whiteSpace=wrap;html=1;" vertex="1" parent="1">
          <mxGeometry x="-2020" y="-535" width="240" height="360" as="geometry" />
        </mxCell>
        <mxCell id="o0VZomf-e8LL-QNXolfp-6" value="" style="rounded=1;whiteSpace=wrap;html=1;arcSize=10;" vertex="1" parent="1">
          <mxGeometry x="-2020" y="-305" width="240" height="190" as="geometry" />
        </mxCell>
        <mxCell id="o0VZomf-e8LL-QNXolfp-7" value="" style="rounded=0;whiteSpace=wrap;html=1;" vertex="1" parent="1">
          <mxGeometry x="-2020" y="-315" width="240" height="30" as="geometry" />
        </mxCell>
        <mxCell id="o0VZomf-e8LL-QNXolfp-8" value="main" style="text;html=1;strokeColor=none;fillColor=none;align=center;verticalAlign=middle;whiteSpace=wrap;rounded=0;" vertex="1" parent="1">
          <mxGeometry x="-1930" y="-555" width="40" height="20" as="geometry" />
        </mxCell>
        <mxCell id="o0VZomf-e8LL-QNXolfp-9" style="edgeStyle=orthogonalEdgeStyle;rounded=0;orthogonalLoop=1;jettySize=auto;html=1;fontSize=20;" edge="1" parent="1" source="o0VZomf-e8LL-QNXolfp-10">
          <mxGeometry relative="1" as="geometry">
            <mxPoint x="-2080" y="5" as="targetPoint" />
          </mxGeometry>
        </mxCell>
        <mxCell id="o0VZomf-e8LL-QNXolfp-10" value="" style="rounded=1;whiteSpace=wrap;html=1;" vertex="1" parent="1">
          <mxGeometry x="-2010" y="-265" width="100" height="60" as="geometry" />
        </mxCell>
        <mxCell id="o0VZomf-e8LL-QNXolfp-11" value="" style="rounded=1;whiteSpace=wrap;html=1;" vertex="1" parent="1">
          <mxGeometry x="-2010" y="-190" width="100" height="60" as="geometry" />
        </mxCell>
        <mxCell id="o0VZomf-e8LL-QNXolfp-12" value="" style="rounded=1;whiteSpace=wrap;html=1;" vertex="1" parent="1">
          <mxGeometry x="-1890" y="-190" width="100" height="60" as="geometry" />
        </mxCell>
        <mxCell id="o0VZomf-e8LL-QNXolfp-13" style="edgeStyle=orthogonalEdgeStyle;rounded=0;orthogonalLoop=1;jettySize=auto;html=1;fontSize=20;" edge="1" parent="1" source="o0VZomf-e8LL-QNXolfp-14">
          <mxGeometry relative="1" as="geometry">
            <mxPoint x="-1690" y="25" as="targetPoint" />
          </mxGeometry>
        </mxCell>
        <mxCell id="o0VZomf-e8LL-QNXolfp-14" value="" style="rounded=1;whiteSpace=wrap;html=1;" vertex="1" parent="1">
          <mxGeometry x="-1890" y="-265" width="100" height="60" as="geometry" />
        </mxCell>
        <mxCell id="o0VZomf-e8LL-QNXolfp-15" value="Expense" style="text;html=1;strokeColor=none;fillColor=none;align=center;verticalAlign=middle;whiteSpace=wrap;rounded=0;" vertex="1" parent="1">
          <mxGeometry x="-1980" y="-245" width="40" height="20" as="geometry" />
        </mxCell>
        <mxCell id="o0VZomf-e8LL-QNXolfp-16" value="Total" style="text;html=1;strokeColor=none;fillColor=none;align=center;verticalAlign=middle;whiteSpace=wrap;rounded=0;" vertex="1" parent="1">
          <mxGeometry x="-1980" y="-170" width="40" height="20" as="geometry" />
        </mxCell>
        <mxCell id="o0VZomf-e8LL-QNXolfp-17" value="income" style="text;html=1;strokeColor=none;fillColor=none;align=center;verticalAlign=middle;whiteSpace=wrap;rounded=0;" vertex="1" parent="1">
          <mxGeometry x="-1860" y="-245" width="40" height="20" as="geometry" />
        </mxCell>
        <mxCell id="o0VZomf-e8LL-QNXolfp-18" style="edgeStyle=orthogonalEdgeStyle;rounded=0;orthogonalLoop=1;jettySize=auto;html=1;fontSize=20;" edge="1" parent="1" source="o0VZomf-e8LL-QNXolfp-19">
          <mxGeometry relative="1" as="geometry">
            <mxPoint x="-1749.9999999999998" y="25" as="targetPoint" />
          </mxGeometry>
        </mxCell>
        <mxCell id="o0VZomf-e8LL-QNXolfp-19" value="invest" style="text;html=1;strokeColor=none;fillColor=none;align=center;verticalAlign=middle;whiteSpace=wrap;rounded=0;" vertex="1" parent="1">
          <mxGeometry x="-1860" y="-170" width="40" height="20" as="geometry" />
        </mxCell>
        <mxCell id="o0VZomf-e8LL-QNXolfp-20" value="" style="rounded=1;whiteSpace=wrap;html=1;" vertex="1" parent="1">
          <mxGeometry x="-2160" y="105" width="240" height="360" as="geometry" />
        </mxCell>
        <mxCell id="o0VZomf-e8LL-QNXolfp-21" value="" style="rounded=1;whiteSpace=wrap;html=1;arcSize=10;" vertex="1" parent="1">
          <mxGeometry x="-2160" y="335" width="240" height="190" as="geometry" />
        </mxCell>
        <mxCell id="o0VZomf-e8LL-QNXolfp-22" value="" style="rounded=0;whiteSpace=wrap;html=1;" vertex="1" parent="1">
          <mxGeometry x="-2160" y="325" width="240" height="30" as="geometry" />
        </mxCell>
        <mxCell id="o0VZomf-e8LL-QNXolfp-23" value="quize" style="text;html=1;strokeColor=none;fillColor=none;align=center;verticalAlign=middle;whiteSpace=wrap;rounded=0;strokeWidth=2;fontSize=26;" vertex="1" parent="1">
          <mxGeometry x="-1960" y="25" width="90" height="30" as="geometry" />
        </mxCell>
        <mxCell id="o0VZomf-e8LL-QNXolfp-24" value="" style="rounded=1;whiteSpace=wrap;html=1;" vertex="1" parent="1">
          <mxGeometry x="-2150" y="375" width="100" height="60" as="geometry" />
        </mxCell>
        <mxCell id="o0VZomf-e8LL-QNXolfp-25" value="" style="rounded=1;whiteSpace=wrap;html=1;" vertex="1" parent="1">
          <mxGeometry x="-2150" y="450" width="100" height="60" as="geometry" />
        </mxCell>
        <mxCell id="o0VZomf-e8LL-QNXolfp-26" value="" style="rounded=1;whiteSpace=wrap;html=1;" vertex="1" parent="1">
          <mxGeometry x="-2030" y="450" width="100" height="60" as="geometry" />
        </mxCell>
        <mxCell id="o0VZomf-e8LL-QNXolfp-27" value="" style="rounded=1;whiteSpace=wrap;html=1;" vertex="1" parent="1">
          <mxGeometry x="-2030" y="375" width="100" height="60" as="geometry" />
        </mxCell>
        <mxCell id="o0VZomf-e8LL-QNXolfp-28" value="currency" style="text;html=1;strokeColor=none;fillColor=none;align=center;verticalAlign=middle;whiteSpace=wrap;rounded=0;" vertex="1" parent="1">
          <mxGeometry x="-2120" y="395" width="40" height="20" as="geometry" />
        </mxCell>
        <mxCell id="o0VZomf-e8LL-QNXolfp-29" value="currency" style="text;html=1;strokeColor=none;fillColor=none;align=center;verticalAlign=middle;whiteSpace=wrap;rounded=0;" vertex="1" parent="1">
          <mxGeometry x="-2120" y="470" width="40" height="20" as="geometry" />
        </mxCell>
        <mxCell id="o0VZomf-e8LL-QNXolfp-30" value="currency" style="text;html=1;strokeColor=none;fillColor=none;align=center;verticalAlign=middle;whiteSpace=wrap;rounded=0;" vertex="1" parent="1">
          <mxGeometry x="-2000" y="395" width="40" height="20" as="geometry" />
        </mxCell>
        <mxCell id="o0VZomf-e8LL-QNXolfp-31" value="currency" style="text;html=1;strokeColor=none;fillColor=none;align=center;verticalAlign=middle;whiteSpace=wrap;rounded=0;" vertex="1" parent="1">
          <mxGeometry x="-2000" y="470" width="40" height="20" as="geometry" />
        </mxCell>
        <mxCell id="o0VZomf-e8LL-QNXolfp-32" value="&lt;br&gt;" style="text;html=1;align=center;verticalAlign=middle;resizable=0;points=[];autosize=1;strokeColor=none;" vertex="1" parent="1">
          <mxGeometry x="-1650" y="185" width="20" height="20" as="geometry" />
        </mxCell>
        <mxCell id="o0VZomf-e8LL-QNXolfp-33" value="step 1 - currency" style="text;html=1;strokeColor=none;fillColor=none;align=center;verticalAlign=middle;whiteSpace=wrap;rounded=0;fontSize=12;" vertex="1" parent="1">
          <mxGeometry x="-2100" y="85" width="120" height="20" as="geometry" />
        </mxCell>
        <mxCell id="o0VZomf-e8LL-QNXolfp-34" value="" style="rounded=1;whiteSpace=wrap;html=1;" vertex="1" parent="1">
          <mxGeometry x="-1890" y="105" width="240" height="420" as="geometry" />
        </mxCell>
        <mxCell id="o0VZomf-e8LL-QNXolfp-35" value="input a valid number" style="rounded=0;whiteSpace=wrap;html=1;" vertex="1" parent="1">
          <mxGeometry x="-1890" y="325" width="240" height="30" as="geometry" />
        </mxCell>
        <mxCell id="o0VZomf-e8LL-QNXolfp-36" value="step 2 - amount" style="text;html=1;strokeColor=none;fillColor=none;align=center;verticalAlign=middle;whiteSpace=wrap;rounded=0;fontSize=12;" vertex="1" parent="1">
          <mxGeometry x="-1830" y="85" width="120" height="20" as="geometry" />
        </mxCell>
        <mxCell id="o0VZomf-e8LL-QNXolfp-37" value="" style="rounded=1;whiteSpace=wrap;html=1;fontSize=12;strokeWidth=2;" vertex="1" parent="1">
          <mxGeometry x="-1870" y="375" width="200" height="120" as="geometry" />
        </mxCell>
        <mxCell id="o0VZomf-e8LL-QNXolfp-38" value="keyboard" style="text;html=1;strokeColor=none;fillColor=none;align=center;verticalAlign=middle;whiteSpace=wrap;rounded=0;fontSize=22;" vertex="1" parent="1">
          <mxGeometry x="-1815" y="420" width="90" height="20" as="geometry" />
        </mxCell>
        <mxCell id="o0VZomf-e8LL-QNXolfp-39" value="&lt;br&gt;" style="text;html=1;align=center;verticalAlign=middle;resizable=0;points=[];autosize=1;strokeColor=none;" vertex="1" parent="1">
          <mxGeometry x="-1380" y="175" width="20" height="20" as="geometry" />
        </mxCell>
        <mxCell id="o0VZomf-e8LL-QNXolfp-40" value="step 3 - tags" style="text;html=1;strokeColor=none;fillColor=none;align=center;verticalAlign=middle;whiteSpace=wrap;rounded=0;fontSize=12;" vertex="1" parent="1">
          <mxGeometry x="-1560" y="85" width="120" height="20" as="geometry" />
        </mxCell>
        <mxCell id="o0VZomf-e8LL-QNXolfp-41" value="" style="rounded=1;whiteSpace=wrap;html=1;" vertex="1" parent="1">
          <mxGeometry x="-1620" y="105" width="240" height="360" as="geometry" />
        </mxCell>
        <mxCell id="o0VZomf-e8LL-QNXolfp-42" value="" style="rounded=1;whiteSpace=wrap;html=1;arcSize=10;" vertex="1" parent="1">
          <mxGeometry x="-1620" y="335" width="240" height="190" as="geometry" />
        </mxCell>
        <mxCell id="o0VZomf-e8LL-QNXolfp-43" value="" style="rounded=0;whiteSpace=wrap;html=1;" vertex="1" parent="1">
          <mxGeometry x="-1620" y="325" width="240" height="30" as="geometry" />
        </mxCell>
        <mxCell id="o0VZomf-e8LL-QNXolfp-44" value="" style="rounded=1;whiteSpace=wrap;html=1;" vertex="1" parent="1">
          <mxGeometry x="-1610" y="375" width="220" height="60" as="geometry" />
        </mxCell>
        <mxCell id="o0VZomf-e8LL-QNXolfp-45" value="" style="rounded=1;whiteSpace=wrap;html=1;" vertex="1" parent="1">
          <mxGeometry x="-1610" y="450" width="100" height="60" as="geometry" />
        </mxCell>
        <mxCell id="o0VZomf-e8LL-QNXolfp-46" value="" style="rounded=1;whiteSpace=wrap;html=1;" vertex="1" parent="1">
          <mxGeometry x="-1490" y="450" width="100" height="60" as="geometry" />
        </mxCell>
        <mxCell id="o0VZomf-e8LL-QNXolfp-47" value="finish" style="text;html=1;strokeColor=none;fillColor=none;align=center;verticalAlign=middle;whiteSpace=wrap;rounded=0;fontSize=20;" vertex="1" parent="1">
          <mxGeometry x="-1520" y="395" width="40" height="20" as="geometry" />
        </mxCell>
        <mxCell id="o0VZomf-e8LL-QNXolfp-48" value="tag" style="text;html=1;strokeColor=none;fillColor=none;align=center;verticalAlign=middle;whiteSpace=wrap;rounded=0;" vertex="1" parent="1">
          <mxGeometry x="-1580" y="470" width="40" height="20" as="geometry" />
        </mxCell>
        <mxCell id="o0VZomf-e8LL-QNXolfp-49" value="tag" style="text;html=1;strokeColor=none;fillColor=none;align=center;verticalAlign=middle;whiteSpace=wrap;rounded=0;" vertex="1" parent="1">
          <mxGeometry x="-1460" y="470" width="40" height="20" as="geometry" />
        </mxCell>
      </root>
    </mxGraphModel>
  </diagram>
</mxfile>
